<svg width="120" height="40" viewBox="0 0 120 40" fill="none" xmlns="http://www.w3.org/2000/svg">
  <!-- Background circle -->
  <circle cx="20" cy="20" r="18" fill="url(#gradient1)" stroke="url(#gradient2)" stroke-width="2"/>
  
  <!-- S letter -->
  <path d="M12 12C12 10.8954 12.8954 10 14 10H26C27.1046 10 28 10.8954 28 12V14C28 15.1046 27.1046 16 26 16H14C12.8954 16 12 15.1046 12 14V12Z" fill="white"/>
  <path d="M12 18C12 16.8954 12.8954 16 14 16H26C27.1046 16 28 16.8954 28 18V20C28 21.1046 27.1046 22 26 22H14C12.8954 22 12 21.1046 12 20V18Z" fill="white"/>
  <path d="M12 24C12 22.8954 12.8954 22 14 22H26C27.1046 22 28 22.8954 28 24V26C28 27.1046 27.1046 28 26 28H14C12.8954 28 12 27.1046 12 26V24Z" fill="white"/>
  
  <!-- Consulting icon (building/office) -->
  <path d="M45 12H55V28H45V12Z" fill="url(#gradient3)"/>
  <rect x="47" y="14" width="2" height="2" fill="white"/>
  <rect x="50" y="14" width="2" height="2" fill="white"/>
  <rect x="47" y="17" width="2" height="2" fill="white"/>
  <rect x="50" y="17" width="2" height="2" fill="white"/>
  <rect x="47" y="20" width="2" height="2" fill="white"/>
  <rect x="50" y="20" width="2" height="2" fill="white"/>
  <rect x="47" y="23" width="2" height="2" fill="white"/>
  <rect x="50" y="23" width="2" height="2" fill="white"/>
  
  <!-- Company name -->
  <text x="65" y="18" font-family="Arial, sans-serif" font-size="16" font-weight="bold" fill="url(#gradient4)">SEEF</text>
  <text x="65" y="30" font-family="Arial, sans-serif" font-size="8" fill="#6B7280">Consulting</text>
  
  <!-- Gradients -->
  <defs>
    <linearGradient id="gradient1" x1="0%" y1="0%" x2="100%" y2="100%">
      <stop offset="0%" style="stop-color:#2563EB;stop-opacity:1" />
      <stop offset="100%" style="stop-color:#1D4ED8;stop-opacity:1" />
    </linearGradient>
    <linearGradient id="gradient2" x1="0%" y1="0%" x2="100%" y2="100%">
      <stop offset="0%" style="stop-color:#3B82F6;stop-opacity:1" />
      <stop offset="100%" style="stop-color:#2563EB;stop-opacity:1" />
    </linearGradient>
    <linearGradient id="gradient3" x1="0%" y1="0%" x2="100%" y2="100%">
      <stop offset="0%" style="stop-color:#2563EB;stop-opacity:1" />
      <stop offset="100%" style="stop-color:#1D4ED8;stop-opacity:1" />
    </linearGradient>
    <linearGradient id="gradient4" x1="0%" y1="0%" x2="100%" y2="0%">
      <stop offset="0%" style="stop-color:#2563EB;stop-opacity:1" />
      <stop offset="100%" style="stop-color:#1D4ED8;stop-opacity:1" />
    </linearGradient>
  </defs>
</svg> 